<svg width="20" height="23" viewBox="0 0 20 23" fill="none" xmlns="http://www.w3.org/2000/svg">
<path fill-rule="evenodd" clip-rule="evenodd" d="M5.5 0.395264C6.05228 0.395264 6.5 0.860493 6.5 1.43438V2.4735H13.5V1.43438C13.5 0.860493 13.9477 0.395264 14.5 0.395264C15.0523 0.395264 15.5 0.860493 15.5 1.43438V2.49915C18.0267 2.75983 20 4.975 20 7.6691V17.0212C20 19.8906 17.7614 22.2168 15 22.2168H5C2.23858 22.2168 0 19.8906 0 17.0212V7.6691C0 4.975 1.97334 2.75983 4.5 2.49915V1.43438C4.5 0.860493 4.94772 0.395264 5.5 0.395264ZM2.17071 6.62998H17.8293C17.4175 5.4192 16.3062 4.55174 15 4.55174H5C3.69378 4.55174 2.58254 5.4192 2.17071 6.62998ZM18 8.70821H2V17.0212C2 18.7428 3.34315 20.1385 5 20.1385H15C16.6569 20.1385 18 18.7428 18 17.0212V8.70821ZM4 11.8256C4 11.2517 4.44772 10.7865 5 10.7865H9C9.55229 10.7865 10 11.2517 10 11.8256V15.982C10 16.5559 9.55229 17.0212 9 17.0212H5C4.44772 17.0212 4 16.5559 4 15.982V11.8256ZM8 12.8647H6V14.9429H8V12.8647Z" fill="#9DADFF"/>
</svg>
