<svg width="92" height="92" viewBox="0 0 92 92" fill="none" xmlns="http://www.w3.org/2000/svg">
<path d="M84.1392 23.9814C82.8684 21.7751 75.4841 23.4173 65.2004 27.7528C61.1041 23.4422 55.6766 20.6353 49.7913 19.7839C43.9061 18.9325 37.9056 20.0862 32.7557 23.0592C27.6057 26.0322 23.606 30.6516 21.4002 36.1739C19.1944 41.6961 18.9109 47.7999 20.5953 53.5029C11.7001 60.2439 6.58321 65.8093 7.86074 68.0224C9.13828 70.2354 16.5158 68.5864 26.8018 64.2532C30.8987 68.5618 36.326 71.3668 42.2103 72.2169C48.0947 73.067 54.094 71.9127 59.2428 68.9398C64.3916 65.9669 68.3905 61.3482 70.5961 55.827C72.8017 50.3058 73.0857 44.2031 71.4023 38.5009C80.2998 31.7598 85.4167 26.1944 84.1392 23.9814ZM16.6381 62.9417C16.1013 62.0107 18.0629 59.7411 21.7641 56.708C22.1538 57.577 22.5893 58.4246 23.0689 59.2472C23.5421 60.0674 24.0593 60.8613 24.6182 61.6256C20.1242 63.3154 17.1795 63.8795 16.6472 62.9485L16.6381 62.9417ZM25.6738 57.7319C25.126 56.7813 24.6453 55.7935 24.2354 54.7759C22.6048 50.7324 22.1331 46.3146 22.8734 42.018C23.6137 37.7214 25.5367 33.7162 28.4265 30.4516C31.3164 27.1871 35.0587 24.7924 39.2337 23.5363C43.4087 22.2801 47.8512 22.2123 52.0626 23.3403C58.0694 24.9579 63.1913 28.8882 66.308 34.2719C66.8545 35.2193 67.3351 36.2032 67.7464 37.2165C62.8718 40.9087 56.0311 45.3959 48.2436 49.9013C40.456 54.4067 33.1487 58.0784 27.5153 60.4546C26.8423 59.5904 26.23 58.6807 25.6828 57.7319H25.6738ZM68.6502 52.069C67.5956 56.0025 65.5353 59.5938 62.6719 62.4895C59.8085 65.3852 56.2407 67.4857 52.3193 68.5843C48.3979 69.6829 44.258 69.7419 40.3069 68.7553C36.3559 67.7687 32.7296 65.7706 29.785 62.9575C36.6353 59.8557 43.3237 56.4082 49.8246 52.6285C56.3488 48.8875 62.6789 44.8179 68.7906 40.4353C69.7267 44.264 69.6815 48.267 68.6592 52.0736L68.6502 52.069ZM70.2154 35.2844C69.4529 33.5536 68.5059 31.9102 67.3908 30.3826C71.8667 28.6928 74.8136 28.1311 75.3505 29.0621C75.8873 29.993 73.9257 32.2582 70.2245 35.2889L70.2154 35.2844Z" fill="#9DADFF"/>
<path fill-rule="evenodd" clip-rule="evenodd" d="M83.9429 24.0944C83.6823 23.642 83.0807 23.3426 82.0707 23.2559C81.0705 23.17 79.7315 23.2993 78.0953 23.6358C74.8259 24.3082 70.4244 25.7962 65.2884 27.9615L65.1441 28.0224L65.0362 27.9088C60.9749 23.6351 55.5938 20.8522 49.7589 20.0081C43.924 19.164 37.9748 20.3078 32.8689 23.2554C27.763 26.203 23.7974 30.7829 21.6105 36.2579C19.4236 41.7329 19.1425 47.7846 20.8126 53.4387L20.8569 53.5888L20.7321 53.6834C16.2895 57.0502 12.7998 60.1165 10.5826 62.6111C9.47292 63.8596 8.69145 64.9545 8.26584 65.864C7.83611 66.7824 7.79455 67.4546 8.05692 67.9091C8.31928 68.3636 8.92212 68.6637 9.93222 68.7508C10.9326 68.8369 12.2715 68.7076 13.9074 68.3708C17.1763 67.6978 21.5766 66.2086 26.7139 64.0444L26.8581 63.9837L26.966 64.0971C31.0278 68.3689 36.4087 71.1499 42.2427 71.9927C48.0768 72.8356 54.0248 71.6911 59.1295 68.7436C64.2343 65.7961 68.1991 61.217 70.3858 55.743C72.5725 50.2689 72.854 44.2184 71.1851 38.565L71.1408 38.4149L71.2655 38.3203C75.7093 34.9536 79.1996 31.8872 81.4171 29.3926C82.5269 28.1441 83.3084 27.0493 83.734 26.1397C84.1638 25.2213 84.2053 24.5489 83.9429 24.0944ZM16.4651 63.0951L16.4419 63.0548C16.2543 62.7295 16.3075 62.3274 16.4837 61.9128C16.6625 61.4922 16.989 61.0067 17.4379 60.4681C18.3375 59.3888 19.7661 58.0525 21.6206 56.5328L21.8497 56.3451L21.9708 56.6154C22.3572 57.477 22.789 58.3174 23.2646 59.1332L23.2651 59.134C23.7342 59.9471 24.247 60.7342 24.8011 61.4919L24.9771 61.7327L24.6979 61.8377C22.4464 62.6843 20.5711 63.2536 19.1856 63.493C18.4943 63.6125 17.9108 63.6526 17.4577 63.597C17.0313 63.5447 16.6708 63.4007 16.4768 63.1038L16.4651 63.0951ZM16.6472 62.9485C17.1708 63.8642 20.0281 63.3336 24.3979 61.708C24.4709 61.6809 24.5444 61.6534 24.6182 61.6256C24.572 61.5624 24.5261 61.499 24.4804 61.4354C23.9741 60.7298 23.503 59.9995 23.0689 59.2472C22.6286 58.4921 22.2255 57.7159 21.861 56.9216C21.8284 56.8505 21.7961 56.7794 21.7641 56.708C21.7032 56.7579 21.6428 56.8076 21.5828 56.8571C17.999 59.8154 16.1101 62.026 16.6381 62.9417L16.6472 62.9485ZM25.5429 57.9584L25.4775 57.845C24.9244 56.8852 24.4392 55.888 24.0253 54.8605C22.3789 50.778 21.9028 46.3176 22.6502 41.9795C23.3977 37.6415 25.3392 33.5976 28.2569 30.3015C31.1746 27.0054 34.9532 24.5876 39.1685 23.3193C43.3838 22.0511 47.8691 21.9826 52.1212 23.1215L52.1215 23.1216C58.1861 24.7547 63.3573 28.7229 66.5041 34.1584L66.5043 34.1587C67.0559 35.1151 67.541 36.1083 67.9563 37.1313L68.0216 37.2923L67.8832 37.3971C62.9992 41.0964 56.1502 45.5887 48.357 50.0974C40.5634 54.6062 33.2475 58.2826 27.6034 60.6633L27.4433 60.7308L27.3366 60.5937C26.684 59.7558 26.088 58.8754 25.5524 57.9584H25.5429ZM25.6828 57.7319C26.23 58.6807 26.8423 59.5904 27.5153 60.4546C33.1487 58.0784 40.456 54.4067 48.2436 49.9013C56.0311 45.3959 62.8718 40.9087 67.7464 37.2165C67.335 36.2032 66.8545 35.2193 66.308 34.2719C63.1912 28.8882 58.0694 24.9579 52.0626 23.3403C47.8512 22.2123 43.4087 22.2801 39.2337 23.5363C35.0587 24.7924 31.3164 27.1871 28.4265 30.4516C25.5367 33.7162 23.6137 37.7214 22.8734 42.018C22.1331 46.3146 22.6048 50.7324 24.2354 54.7759C24.6453 55.7935 25.126 56.7813 25.6738 57.7319H25.6828ZM68.6598 52.0716C68.664 52.056 68.6681 52.0405 68.6723 52.0249C68.6878 51.9666 68.7031 51.9082 68.7182 51.8498C69.6625 48.1893 69.7069 44.3545 68.8475 40.6732C68.8289 40.5939 68.81 40.5145 68.7906 40.4353C68.7245 40.4827 68.6583 40.5302 68.592 40.5775C62.5418 44.906 56.2782 48.928 49.8246 52.6285C43.3942 56.3673 36.7801 59.7809 30.0075 62.8566C29.9334 62.8903 29.8592 62.9239 29.785 62.9575C29.844 63.0139 29.9033 63.0699 29.9628 63.1257C32.8751 65.8503 36.435 67.7885 40.3069 68.7553C44.258 69.7419 48.3979 69.6829 52.3193 68.5843C56.2407 67.4857 59.8085 65.3852 62.6719 62.4895C65.4812 59.6485 67.5174 56.1381 68.5893 52.2918C68.6054 52.234 68.6213 52.1761 68.637 52.1181C68.6412 52.1024 68.6455 52.0867 68.6497 52.071C68.6498 52.0703 68.65 52.0697 68.6502 52.069L68.6592 52.0736C68.6594 52.0729 68.6596 52.0723 68.6598 52.0716ZM68.7956 52.395C67.7103 56.2618 65.6591 59.7908 62.833 62.6488C59.942 65.5724 56.3396 67.6932 52.3804 68.8024C48.4211 69.9117 44.2413 69.9712 40.2521 68.975C36.2628 67.9789 32.6016 65.9616 29.6285 63.1213L29.3859 62.8896L29.6916 62.7512C36.5348 59.6525 43.2165 56.2085 49.7108 52.4327L49.712 52.432C56.2295 48.6948 62.5532 44.6293 68.6586 40.2512L68.931 40.0559L69.0107 40.3815C69.9558 44.2472 69.9102 48.2889 68.878 52.1323L68.8061 52.4002L68.7956 52.395ZM70.041 35.4504L70.0081 35.3757C69.2522 33.6599 68.3133 32.0306 67.2078 30.5162L67.0324 30.2758L67.3108 30.1707C69.5534 29.3241 71.4248 28.7553 72.8092 28.5163C73.5001 28.3971 74.0837 28.3574 74.5373 28.4132C74.9844 28.4682 75.3591 28.6235 75.5467 28.9489C75.7343 29.2742 75.6812 29.6761 75.5049 30.0903C75.3261 30.5105 74.9995 30.9953 74.5506 31.5332C73.651 32.6111 72.2224 33.9457 70.368 35.4642L70.2544 35.5572L70.041 35.4504ZM84.1392 23.9814C82.8684 21.7751 75.4841 23.4173 65.2004 27.7528C61.1041 23.4422 55.6766 20.6353 49.7913 19.7839C43.9061 18.9325 37.9056 20.0862 32.7557 23.0592C27.6057 26.0322 23.606 30.6516 21.4002 36.1739C19.1944 41.6961 18.9109 47.7999 20.5953 53.5029C11.7001 60.2439 6.58321 65.8093 7.86074 68.0224C9.13828 70.2354 16.5158 68.5864 26.8018 64.2532C30.8987 68.5618 36.326 71.3668 42.2103 72.2169C48.0947 73.067 54.094 71.9127 59.2428 68.9398C64.3916 65.9669 68.3905 61.3482 70.5961 55.827C72.8017 50.3058 73.0857 44.2031 71.4023 38.5009C80.2998 31.7598 85.4167 26.1944 84.1392 23.9814ZM70.247 35.2705C70.2986 35.2281 70.35 35.1859 70.401 35.1439C73.9879 32.1859 75.8787 29.9781 75.3505 29.0621C74.8225 28.1464 71.9632 28.6747 67.6108 30.3C67.5379 30.3272 67.4645 30.3548 67.3908 30.3826C67.4369 30.4458 67.4828 30.5092 67.5283 30.5728C68.5402 31.9853 69.4096 33.4946 70.1237 35.0786C70.1524 35.1424 70.1809 35.2062 70.2092 35.2702C70.2112 35.275 70.2133 35.2797 70.2154 35.2844L70.2245 35.2889C70.232 35.2828 70.2395 35.2766 70.247 35.2705Z" fill="#9DADFF"/>
</svg>
